<svg width="45" height="50" viewBox="0 0 45 50" fill="none" xmlns="http://www.w3.org/2000/svg">
<rect x="34.1459" y="34.4717" width="14.6761" height="7.22479" rx="1" transform="rotate(47.1444 34.1459 34.4717)" fill="#FCFCF9"/>
<path fill-rule="evenodd" clip-rule="evenodd" d="M28.8496 0.462097C30.2438 0.462097 31.6256 6.20883 33.4258 8.00902C35.226 9.80921 40.9727 11.1911 40.9727 12.5852C40.9727 13.9794 35.226 15.3613 33.4258 17.1615C31.6256 18.9616 30.2438 24.7084 28.8496 24.7084C27.4554 24.7084 26.0736 18.9616 24.2734 17.1615C22.4732 15.3613 16.7265 13.9794 16.7265 12.5852C16.7265 11.1911 22.4732 9.80921 24.2734 8.00902C26.0736 6.20883 27.4554 0.462097 28.8496 0.462097Z" fill="#FCFCF9"/>
<path d="M20 3C21.4529 3 22.8694 3.15596 24.2344 3.4502C24.0606 3.82618 23.8871 4.19231 23.709 4.54102C23.254 5.43175 22.8527 6.05649 22.5098 6.39941C22.1667 6.74232 21.542 7.14371 20.6514 7.59863C19.782 8.04264 18.8093 8.46518 17.8252 8.90625C17.4454 9.07646 17.0594 9.25325 16.6836 9.43262C10.5725 10.9212 6.03613 16.4307 6.03613 23C6.03613 30.712 12.288 36.9639 20 36.9639C27.712 36.9639 33.9639 30.712 33.9639 23C33.9639 22.3962 33.9249 21.8014 33.8506 21.2178C33.8973 21.1233 33.9421 21.0288 33.9893 20.9365C34.4442 20.0459 34.8456 19.4211 35.1885 19.0781C35.5314 18.7352 36.1562 18.3339 37.0469 17.8789C37.6759 17.5576 38.3592 17.2475 39.0615 16.9336C39.67 18.8471 40 20.8849 40 23C40 34.0457 31.0457 43 20 43C8.9543 43 0 34.0457 0 23C0 11.9543 8.9543 3 20 3ZM27.1387 4.31348C28.8356 4.96212 30.4217 5.83423 31.8604 6.89551C32.2169 7.49702 32.6166 8.06965 33.0674 8.52051C33.6482 9.10133 34.4313 9.5975 35.2188 10.0244C36.2867 11.2758 37.2022 12.6608 37.9385 14.1504C37.1943 14.4824 36.405 14.838 35.6826 15.207C34.7465 15.6852 33.7627 16.2617 33.0674 16.957C32.959 17.0654 32.8546 17.1816 32.752 17.3027C31.0266 13.4469 27.6044 10.5165 23.4346 9.46191C23.8762 9.17486 24.2887 8.86263 24.6309 8.52051C25.3261 7.82529 25.9028 6.84223 26.3809 5.90625C26.6416 5.39576 26.8948 4.85125 27.1387 4.31348Z" fill="#FCFCF9"/>
</svg>
