<svg width="50" height="50" viewBox="0 0 50 50" fill="none" xmlns="http://www.w3.org/2000/svg">
<rect x="37.0819" y="34.406" width="14.6761" height="7.22479" rx="1" transform="rotate(47.1444 37.0819 34.406)" fill="#FCFCF9"/>
<path d="M22.9361 2.93433C24.389 2.93433 25.8055 3.09028 27.1704 3.38452C26.9967 3.7605 26.8232 4.12664 26.6451 4.47534C26.1901 5.36608 25.7888 5.99082 25.4458 6.33374C25.1028 6.67664 24.4781 7.07803 23.5874 7.53296C22.7181 7.97696 21.7454 8.39951 20.7613 8.84058C20.3815 9.01078 19.9955 9.18757 19.6197 9.36694C13.5086 10.8556 8.9722 16.365 8.9722 22.9343C8.9722 30.6464 15.224 36.8982 22.9361 36.8982C30.6481 36.8982 36.8999 30.6464 36.8999 22.9343C36.8999 22.3305 36.861 21.7357 36.7867 21.1521C36.8333 21.0576 36.8782 20.9631 36.9253 20.8708C37.3802 19.9802 37.7816 19.3555 38.1245 19.0125C38.4675 18.6695 39.0923 18.2682 39.9829 17.8132C40.6119 17.492 41.2952 17.1818 41.9976 16.8679C42.606 18.7814 42.9361 20.8193 42.9361 22.9343C42.9361 33.98 33.9818 42.9343 22.9361 42.9343C11.8904 42.9343 2.93607 33.98 2.93607 22.9343C2.93607 11.8886 11.8904 2.93433 22.9361 2.93433ZM30.0747 4.2478C31.7717 4.89645 33.3578 5.76855 34.7964 6.82983C35.153 7.43134 35.5526 8.00397 36.0034 8.45483C36.5843 9.03566 37.3674 9.53182 38.1548 9.95874C39.2228 11.2102 40.1383 12.5951 40.8745 14.0847C40.1303 14.4167 39.3411 14.7724 38.6187 15.1414C37.6826 15.6195 36.6987 16.1961 36.0034 16.8914C35.8951 16.9997 35.7907 17.116 35.688 17.2371C33.9627 13.3812 30.5404 10.4508 26.3706 9.39624C26.8122 9.10919 27.2248 8.79696 27.5669 8.45483C28.2621 7.75962 28.8388 6.77656 29.3169 5.84058C29.5777 5.33008 29.8309 4.78557 30.0747 4.2478Z" fill="#FCFCF9"/>
<path fill-rule="evenodd" clip-rule="evenodd" d="M32.3608 0C33.806 0 35.2386 5.95746 37.1048 7.82367C38.971 9.68988 44.9285 11.1224 44.9285 12.5677C44.9285 14.013 38.971 15.4455 37.1048 17.3117C35.2386 19.1779 33.806 25.1354 32.3608 25.1354C30.9155 25.1354 29.4829 19.1779 27.6167 17.3117C25.7505 15.4455 19.7931 14.013 19.7931 12.5677C19.7931 11.1224 25.7505 9.68988 27.6167 7.82367C29.4829 5.95746 30.9155 0 32.3608 0Z" fill="#FCFCF9"/>
</svg>
